<svg version="1.1" id="Layer_1" xmlns="http://www.w3.org/2000/svg" xmlns:xlink="http://www.w3.org/1999/xlink" x="0px" y="0px"
	 width="100%" viewBox="0 0 225 225" enable-background="new 0 0 225 225" xml:space="preserve">
	<defs>
    <clipPath id="circleClip">
      <circle cx="112.5" cy="112.5" r="112.5"/>
    </clipPath>
  </defs>
	<g clip-path="url(#circleClip)">
<path fill="#FFFFFE" opacity="1.000000" stroke="none" 
	d="
M132.000000,226.000000 
	C88.000000,226.000000 44.500004,226.000000 1.000006,226.000000 
	C1.000004,151.000000 1.000004,76.000015 1.000002,1.000016 
	C75.999992,1.000011 150.999985,1.000011 225.999969,1.000005 
	C225.999985,75.999985 225.999985,150.999969 226.000000,225.999969 
	C194.833328,226.000000 163.666672,226.000000 132.000000,226.000000 
M50.693878,94.544785 
	C50.736862,94.714447 50.779846,94.884109 50.655354,95.972672 
	C50.725948,115.628326 50.796543,135.283981 50.766544,155.775742 
	C50.894077,157.164963 51.021610,158.554199 51.084309,160.719955 
	C53.282299,171.722565 59.072861,180.227432 68.466888,186.434509 
	C75.822624,191.294800 83.017464,196.404861 90.188385,201.537231 
	C104.019974,211.436752 121.461884,211.748077 135.503845,202.112350 
	C143.735764,196.463531 152.002243,190.849640 160.007477,184.889984 
	C169.667465,177.698395 175.637222,168.022491 175.847076,155.856918 
	C176.203125,135.216370 175.877579,114.564064 175.963470,93.199532 
	C176.024902,92.240593 176.086349,91.281662 176.968933,90.290810 
	C180.407349,90.406479 181.040955,88.268127 181.013412,85.428955 
	C180.957123,79.628723 180.781113,73.816673 181.069534,68.030182 
	C181.300919,63.388432 179.383804,61.915127 174.935516,61.994728 
	C165.660950,62.160683 156.379593,61.947289 147.335663,61.280724 
	C157.402252,48.588039 161.627533,34.353649 159.361633,18.183367 
	C136.656616,19.807541 115.026291,39.508595 110.018944,61.956039 
	C108.969894,61.921001 107.920853,61.885963 106.954399,61.096436 
	C108.283173,57.362091 109.716835,53.660164 110.886421,49.876606 
	C111.322563,48.465748 111.783852,46.484032 111.145912,45.406788 
	C101.940033,29.861532 88.207832,21.181814 69.966270,18.551798 
	C67.353821,35.027901 72.002876,49.059074 80.354645,62.038925 
	C70.881317,62.046818 61.404549,62.208454 51.936150,61.996326 
	C47.351685,61.893620 45.702808,63.639652 45.929390,68.176056 
	C46.219215,73.978600 46.077187,79.807953 45.969868,85.622955 
	C45.913643,88.669586 46.914963,90.449127 50.305820,90.887383 
	C50.472778,91.935577 50.639732,92.983772 50.693878,94.544785 
z"/>
<path fill="#FEB72C" opacity="1.000000" stroke="none" 
	d="
M50.867138,154.939636 
	C50.796543,135.283981 50.725948,115.628326 50.985413,95.413757 
	C51.548187,94.596413 51.780899,94.337982 52.447838,94.032051 
	C93.867546,93.961929 134.853027,93.939316 175.838516,93.916702 
	C175.877579,114.564064 176.203125,135.216370 175.847076,155.856918 
	C175.637222,168.022491 169.667465,177.698395 160.007477,184.889984 
	C152.002243,190.849640 143.735764,196.463531 135.503845,202.112350 
	C121.461884,211.748077 104.019974,211.436752 90.188385,201.537231 
	C83.017464,196.404861 75.822624,191.294800 68.466888,186.434509 
	C59.072861,180.227432 53.282299,171.722565 51.362877,160.081543 
	C51.383343,157.941971 51.125240,156.440811 50.867138,154.939636 
M112.749344,172.788879 
	C122.494972,172.148590 129.533493,167.051727 131.864273,158.947052 
	C133.427124,153.512604 132.373077,152.051071 126.712875,152.026001 
	C118.073380,151.987732 109.433540,151.999344 100.793938,152.021729 
	C95.093460,152.036514 93.282341,154.450378 95.553284,159.853043 
	C98.578568,167.050293 103.913742,171.656967 112.749344,172.788879 
M61.518341,125.413795 
	C61.372585,126.091568 61.226830,126.769333 61.081074,127.447105 
	C61.274590,127.480011 61.468105,127.512917 61.661621,127.545830 
	C61.726627,127.000969 61.791634,126.456116 61.518341,125.413795 
z"/>
<path fill="#FEB62C" opacity="1.000000" stroke="none" 
	d="
M147.101028,61.889763 
	C156.379593,61.947289 165.660950,62.160683 174.935516,61.994728 
	C179.383804,61.915127 181.300919,63.388432 181.069534,68.030182 
	C180.781113,73.816673 180.957123,79.628723 181.013412,85.428955 
	C181.040955,88.268127 180.407349,90.406479 176.092499,90.211456 
	C159.217010,90.112091 143.217911,90.059334 127.218910,90.079544 
	C101.555504,90.111969 75.892151,90.192696 50.228775,90.253014 
	C46.914963,90.449127 45.913643,88.669586 45.969868,85.622955 
	C46.077187,79.807953 46.219215,73.978600 45.929390,68.176056 
	C45.702808,63.639652 47.351685,61.893620 51.936150,61.996326 
	C61.404549,62.208454 70.881317,62.046818 81.283142,62.016926 
	C90.431686,61.946926 98.651749,61.898926 106.871803,61.850925 
	C107.920853,61.885963 108.969894,61.921001 110.886200,61.998123 
	C123.535988,61.990059 135.318512,61.939911 147.101028,61.889763 
z"/>
<path fill="#027945" opacity="1.000000" stroke="none" 
	d="
M147.218353,61.585243 
	C135.318512,61.939911 123.535988,61.990059 111.279083,61.946251 
	C115.026291,39.508595 136.656616,19.807541 159.361633,18.183367 
	C161.627533,34.353649 157.402252,48.588039 147.218353,61.585243 
z"/>
<path fill="#037A45" opacity="1.000000" stroke="none" 
	d="
M106.913101,61.473679 
	C98.651749,61.898926 90.431686,61.946926 81.767036,61.941853 
	C72.002876,49.059074 67.353821,35.027901 69.966270,18.551798 
	C88.207832,21.181814 101.940033,29.861532 111.145912,45.406788 
	C111.783852,46.484032 111.322563,48.465748 110.886421,49.876606 
	C109.716835,53.660164 108.283173,57.362091 106.913101,61.473679 
M82.080887,33.289555 
	C81.740005,32.844620 81.399124,32.399685 80.946159,31.285297 
	C79.695541,30.116179 78.444931,28.947062 77.145828,27.090284 
	C75.767319,25.389111 74.388802,23.687937 72.820587,21.477772 
	C72.423958,21.172468 72.027321,20.867165 71.630692,20.561861 
	C71.501678,20.777536 71.372665,20.993210 71.243660,21.208883 
	C71.821587,21.480511 72.399521,21.752138 72.980278,22.717661 
	C74.295433,24.508535 75.610580,26.299410 77.220985,28.675556 
	C78.441803,29.818844 79.662628,30.962132 80.926697,32.687176 
	C81.258354,33.145523 81.590012,33.603867 82.147087,34.492619 
	C82.534302,34.487816 82.921516,34.483013 83.308731,34.478210 
	C82.924812,34.272163 82.540886,34.066120 82.080887,33.289555 
z"/>
<path fill="#9D642B" opacity="1.000000" stroke="none" 
	d="
M50.267296,90.570198 
	C75.892151,90.192696 101.555504,90.111969 127.218910,90.079544 
	C143.217911,90.059334 159.217010,90.112091 175.681915,90.227417 
	C176.086349,91.281662 176.024902,92.240593 175.901001,93.558121 
	C134.853027,93.939316 93.867546,93.961929 52.147121,93.991631 
	C51.210346,94.009804 51.008518,94.020889 50.806690,94.031967 
	C50.639732,92.983772 50.472778,91.935577 50.267296,90.570198 
z"/>
<path fill="#FEB11B" opacity="1.000000" stroke="none" 
	d="
M50.816841,155.357697 
	C51.125240,156.440811 51.383343,157.941971 51.395294,159.693283 
	C51.021610,158.554199 50.894077,157.164963 50.816841,155.357697 
z"/>
<path fill="#FEB11B" opacity="1.000000" stroke="none" 
	d="
M50.750282,94.288376 
	C51.008518,94.020889 51.210346,94.009804 51.712894,94.039131 
	C51.780899,94.337982 51.548187,94.596413 51.069153,94.954315 
	C50.779846,94.884109 50.736862,94.714447 50.750282,94.288376 
z"/>
<path fill="#D3901B" opacity="1.000000" stroke="none" 
	d="
M112.367989,172.643234 
	C103.913742,171.656967 98.578568,167.050293 95.553284,159.853043 
	C93.282341,154.450378 95.093460,152.036514 100.793938,152.021729 
	C109.433540,151.999344 118.073380,151.987732 126.712875,152.026001 
	C132.373077,152.051071 133.427124,153.512604 131.864273,158.947052 
	C129.533493,167.051727 122.494972,172.148590 112.367989,172.643234 
M127.427277,162.735413 
	C128.383011,160.337708 129.338745,157.939987 130.488464,155.055634 
	C118.901527,155.055634 108.156029,155.055634 97.392685,155.055634 
	C98.004875,162.113495 102.052559,167.300919 108.799202,169.312210 
	C116.154816,171.505051 122.157143,169.126862 127.427277,162.735413 
z"/>
<path fill="#FCF7D8" opacity="1.000000" stroke="none" 
	d="
M61.687492,125.662529 
	C61.791634,126.456116 61.726627,127.000969 61.661621,127.545830 
	C61.468105,127.512917 61.274590,127.480011 61.081074,127.447105 
	C61.226830,126.769333 61.372585,126.091568 61.687492,125.662529 
z"/>
<path fill="#45B65B" opacity="1.000000" stroke="none" 
	d="
M76.925728,28.090286 
	C75.610580,26.299410 74.295433,24.508535 72.987946,22.361206 
	C72.995613,22.004753 73.010292,21.986763 73.010292,21.986763 
	C74.388802,23.687937 75.767319,25.389111 77.101418,27.514103 
	C77.057007,27.937922 76.925728,28.090288 76.925728,28.090286 
z"/>
<path fill="#45B65B" opacity="1.000000" stroke="none" 
	d="
M80.883446,32.105419 
	C79.662628,30.962132 78.441803,29.818844 77.073357,28.382923 
	C76.925728,28.090288 77.057007,27.937922 77.125656,27.857933 
	C78.444931,28.947062 79.695541,30.116179 80.957626,31.657324 
	C80.969093,32.029350 80.883446,32.105419 80.883446,32.105419 
z"/>
<path fill="#45B65B" opacity="1.000000" stroke="none" 
	d="
M72.986526,22.014259 
	C72.399521,21.752138 71.821587,21.480511 71.243660,21.208883 
	C71.372665,20.993210 71.501678,20.777536 71.630692,20.561861 
	C72.027321,20.867165 72.423958,21.172468 72.915436,21.732267 
	C73.010292,21.986763 72.995613,22.004753 72.986526,22.014259 
z"/>
<path fill="#45B65B" opacity="1.000000" stroke="none" 
	d="
M82.156967,33.860077 
	C82.540886,34.066120 82.924812,34.272163 83.308731,34.478210 
	C82.921516,34.483013 82.534302,34.487816 82.093651,34.227402 
	C82.040215,33.962185 82.156967,33.860077 82.156967,33.860077 
z"/>
<path fill="#45B65B" opacity="1.000000" stroke="none" 
	d="
M81.980942,34.012199 
	C81.590012,33.603867 81.258354,33.145523 80.905075,32.396297 
	C80.883446,32.105419 80.969093,32.029350 81.013672,31.992050 
	C81.399124,32.399685 81.740005,32.844620 82.118927,33.574814 
	C82.156967,33.860077 82.040215,33.962185 81.980942,34.012199 
z"/>
<path fill="#FEFDFA" opacity="1.000000" stroke="none" 
	d="
M127.181686,163.017517 
	C122.157143,169.126862 116.154816,171.505051 108.799202,169.312210 
	C102.052559,167.300919 98.004875,162.113495 97.392685,155.055634 
	C108.156029,155.055634 118.901527,155.055634 130.488464,155.055634 
	C129.338745,157.939987 128.383011,160.337708 127.181686,163.017517 
z"/>
</g>
</svg>