<svg version="1.1" id="Layer_1" xmlns="http://www.w3.org/2000/svg" xmlns:xlink="http://www.w3.org/1999/xlink" x="0px" y="0px"
	 width="90%" viewBox="0 0 576 530" enable-background="new 0 0 576 530" xml:space="preserve">
	<circle cx="288" cy="265" r="260" fill="#FFFFFF"/>
	<path fill="#2CDDD9" opacity="1.000000" stroke="none" 
		d="M289.077057,479.996765 
		C287.462769,481.294586 285.987305,483.467865 284.211853,483.749481 
		C271.815582,485.715393 259.372650,487.417206 246.911606,488.931305 
		C241.360779,489.605743 235.724396,490.038757 230.142288,489.910217 
		C209.502090,489.434875 189.271576,486.498260 169.531540,480.071014 
		C149.565933,473.570312 130.658142,465.066406 113.383286,453.059143 
		C110.729683,451.214722 107.982384,449.505127 105.110321,447.054657 
		C104.029701,444.863800 103.426353,442.994293 102.156311,441.894928 
		C90.792969,432.058075 79.134758,422.540100 70.001167,410.426453 
		C66.719185,406.073669 63.613281,401.560974 60.009026,397.491486 
		C58.546776,395.840454 55.969620,395.176849 53.899769,394.063965 
		C53.899769,394.063965 53.971073,394.029694 53.906616,393.768738 
		C53.519146,393.017639 53.196129,392.527496 52.873116,392.037323 
		C44.906544,382.901642 41.193588,371.636963 37.253700,360.521149 
		C33.681335,350.442230 31.278095,339.842102 26.727844,330.245361 
		C21.741137,319.728088 20.981716,308.974243 20.995100,297.833496 
		C21.016117,280.338226 20.718454,262.835815 21.150080,245.351089 
		C21.325790,238.233170 21.814810,230.661911 24.381954,224.175842 
		C27.929331,215.213181 30.879654,205.910034 33.891937,196.915527 
		C39.586811,179.910980 48.586895,165.272903 58.580254,150.867737 
		C70.793137,133.263168 85.930519,118.505890 102.938049,105.676598 
		C122.196571,91.149323 143.369781,80.140594 166.432556,72.929062 
		C179.643890,68.797989 192.853745,64.531029 207.768661,65.032486 
		C219.646484,65.378166 230.730225,65.853310 241.816788,65.932503 
		C247.580994,65.973679 253.350204,65.315643 259.117157,64.973465 
		C269.532928,66.360489 279.949707,67.739998 290.363678,69.140503 
		C292.603516,69.441719 294.833130,69.818718 297.328735,70.315308 
		C297.517517,71.058937 297.240814,72.092720 297.404388,72.167862 
		C298.910614,72.859665 300.488739,73.397690 302.053955,73.957993 
		C354.876434,92.866821 394.579681,127.227959 421.072510,176.479568 
		C441.471558,214.402481 447.169342,255.574326 444.658142,298.021729 
		C443.546600,316.810364 438.664062,334.794861 428.897827,351.190552 
		C412.976746,377.919159 386.810272,389.704681 356.618073,383.163574 
		C326.728973,376.688110 309.547302,356.912994 303.474487,328.031036 
		C300.602661,314.372681 301.281189,299.914032 300.877472,285.802887 
		C300.235443,263.363159 293.369873,243.678329 276.787384,227.956055 
		C243.942551,196.815002 188.379822,198.695755 160.865601,238.961456 
		C148.503845,257.052277 144.633636,277.304688 145.434036,298.808716 
		C146.922226,338.791321 159.030289,374.972931 184.044113,406.469025 
		C210.346893,439.588135 244.406311,461.852570 283.500000,476.990936 
		C285.454041,477.747559 287.222290,478.983826 289.077057,479.996765 
		z"/>
	<path fill="#323434" opacity="1.000000" stroke="none" 
		d="M289.417114,480.157654 
		C287.222290,478.983826 285.454041,477.747559 283.500000,476.990936 
		C244.406311,461.852570 210.346893,439.588135 184.044113,406.469025 
		C159.030289,374.972931 146.922226,338.791321 145.434036,298.808716 
		C144.633636,277.304688 148.503845,257.052277 160.865601,238.961456 
		C188.379822,198.695755 243.942551,196.815002 276.787384,227.956055 
		C293.369873,243.678329 300.235443,263.363159 300.877472,285.802887 
		C301.281189,299.914032 300.602661,314.372681 303.474487,328.031036 
		C309.547302,356.912994 326.728973,376.688110 356.618073,383.163574 
		C386.810272,389.704681 412.976746,377.919159 428.897827,351.190552 
		C438.664062,334.794861 443.546600,316.810364 444.658142,298.021729 
		C447.169342,255.574326 441.471558,214.402481 421.072510,176.479568 
		C394.579681,127.227959 354.876434,92.866821 302.053955,73.957993 
		C300.488739,73.397690 298.910614,72.859665 297.404388,72.167862 
		C297.240814,72.092720 297.517517,71.058937 297.759064,70.236748 
		C304.291138,68.362495 310.572479,65.890411 317.034363,65.254974 
		C330.048187,63.975273 343.152832,63.441715 356.233459,63.056744 
		C382.517456,62.283180 407.598389,67.763359 431.867371,77.771065 
		C455.139618,87.367737 476.173248,100.377060 494.775421,117.307251 
		C500.650330,122.654137 506.526886,128.023514 512.038452,133.734161 
		C514.465515,136.248901 515.911682,139.690536 517.925293,142.627594 
		C526.582947,155.255890 536.380066,167.251068 543.723999,180.598282 
		C555.663635,202.297989 562.229431,225.973114 565.095520,250.671768 
		C568.988281,284.217896 565.320435,316.864197 554.185669,348.686523 
		C545.761047,372.763519 533.057434,394.382874 516.648621,413.913605 
		C498.324402,435.724182 476.405060,453.040405 451.207489,466.084747 
		C429.240723,477.456573 406.083160,485.539734 381.284729,487.995819 
		C371.390869,488.975708 361.429321,489.995758 351.512695,489.871521 
		C330.525909,489.608643 309.919617,486.238708 289.417114,480.157654 
		z"/>
	<path fill="#37D8CF" opacity="1.000000" stroke="none" 
		d="M54.036346,394.385254 
		C55.969620,395.176849 58.546776,395.840454 60.009026,397.491486 
		C63.613281,401.560974 66.719185,406.073669 70.001167,410.426453 
		C79.134758,422.540100 90.792969,432.058075 102.156311,441.894928 
		C103.426353,442.994293 104.029701,444.863800 104.953552,446.746796 
		C100.544487,443.803101 95.582451,441.009125 91.805054,437.077087 
		C80.383789,425.188202 69.391815,412.885254 58.315090,400.668854 
		C56.703144,398.891052 55.542427,396.704132 54.036346,394.385254 
		z"/>
	<path fill="#3AD6D4" opacity="1.000000" stroke="none" 
		d="M258.915588,64.620552 
		C253.350204,65.315643 247.580994,65.973679 241.816788,65.932503 
		C230.730225,65.853310 219.646484,65.378166 208.223389,65.012115 
		C210.310165,64.306450 212.727219,63.130180 215.161423,63.093540 
		C227.791397,62.903461 240.426193,62.952057 253.058090,63.060020 
		C254.946701,63.076160 256.828857,63.846313 258.915588,64.620552 
		z"/>
	<path fill="#37D8CF" opacity="1.000000" stroke="none" 
		d="M52.925594,392.350861 
		C53.196129,392.527496 53.519146,393.017639 53.890507,393.804871 
		C53.618591,393.622772 53.298336,393.143585 52.925594,392.350861 
		z"/>
</svg>
