<svg version="1.1" id="Layer_1" xmlns="http://www.w3.org/2000/svg" xmlns:xlink="http://www.w3.org/1999/xlink" x="0px" y="0px"
	 width="100%" viewBox="0 0 347 177" enable-background="new 0 0 347 177" xml:space="preserve">
<path fill="#FFFEFF" opacity="1.000000" stroke="none" 
	d="
M208.000000,178.000000 
	C138.666672,178.000000 69.833351,178.000000 1.000019,178.000000 
	C1.000012,119.000015 1.000012,60.000031 1.000006,1.000034 
	C116.666634,1.000023 232.333267,1.000023 347.999939,1.000011 
	C347.999939,59.999966 347.999939,118.999931 347.999969,177.999939 
	C301.500000,178.000000 255.000000,178.000000 208.000000,178.000000 
M232.973145,31.503326 
	C232.973145,39.034809 232.973145,46.566288 232.973145,55.140297 
	C230.027176,53.869347 228.393036,53.213219 226.799835,52.469395 
	C211.987381,45.553829 197.892761,46.857758 185.157455,57.043816 
	C172.682251,67.021828 168.371735,80.533821 171.821548,95.872856 
	C175.391190,111.744820 185.670731,122.429497 201.777130,124.888298 
	C213.659470,126.702255 225.988998,126.001823 238.102036,125.708939 
	C243.876877,125.569305 247.989319,119.966560 247.999115,113.834557 
	C248.049881,82.039597 248.041458,50.244511 248.016922,18.449499 
	C248.013000,13.388879 245.182083,10.192726 240.822372,10.054813 
	C236.369263,9.913946 233.143585,13.325112 233.002899,18.520668 
	C232.894806,22.512997 232.976074,26.510448 232.973145,31.503326 
M123.935493,97.524490 
	C118.705170,83.326813 113.547470,69.101738 108.207329,54.945484 
	C106.185760,49.586491 101.903763,47.567783 97.091515,49.229538 
	C92.880455,50.683693 91.047386,55.316631 92.662102,60.472832 
	C92.960045,61.424236 93.329887,62.353401 93.674965,63.289726 
	C102.472473,87.160355 111.335793,111.007263 119.963684,134.939041 
	C120.775085,137.189697 120.741882,140.179794 120.003174,142.473007 
	C117.762512,149.428757 114.901764,156.182251 112.467430,163.079788 
	C111.829781,164.886536 111.388687,167.008102 111.690163,168.848694 
	C112.280830,172.454880 114.548920,174.705185 118.422737,175.094559 
	C123.701714,175.625183 126.289665,172.722366 127.967537,168.186172 
	C141.003662,132.942307 154.107178,97.723358 167.162231,62.486469 
	C167.793900,60.781502 168.549210,58.987816 168.582611,57.222874 
	C168.659409,53.165478 166.844727,50.082794 162.669250,49.083759 
	C157.739578,47.904282 154.157272,50.011559 152.221390,55.249645 
	C145.996277,72.093422 139.876816,88.976257 133.650986,105.819771 
	C132.952621,107.709152 131.834717,109.443459 130.911377,111.249687 
	C130.381592,111.277069 129.851807,111.304451 129.322006,111.331833 
	C127.595001,106.980812 125.867989,102.629791 123.935493,97.524490 
M256.565491,91.858665 
	C258.846405,108.087273 267.742615,119.187912 283.245361,124.149902 
	C295.880859,128.194168 308.295593,126.906265 319.347198,118.804901 
	C323.338409,115.879173 324.127380,111.767654 321.840698,108.341873 
	C319.382904,104.659760 315.690765,103.888535 311.358612,106.150307 
	C310.033142,106.842339 308.736755,107.600365 307.373566,108.208237 
	C295.324524,113.581184 282.378876,110.534470 275.733551,100.670044 
	C274.738007,99.192223 274.278137,97.353523 273.283813,95.004623 
	C276.140930,95.004623 277.954285,95.009094 279.767670,95.003914 
	C294.588654,94.961586 309.410034,94.969757 324.230408,94.849731 
	C330.736176,94.797043 333.005157,92.142380 333.189636,85.683861 
	C333.796753,64.432907 313.694275,44.075699 286.402130,49.669357 
	C267.012451,53.643372 255.258987,70.511978 256.565491,91.858665 
M31.703939,48.964821 
	C26.448704,49.607735 24.986328,53.103714 24.990412,57.783192 
	C25.007427,77.275345 24.983456,96.767540 25.005508,116.259682 
	C25.012558,122.490829 27.708931,125.916328 32.537888,125.997505 
	C37.371292,126.078743 40.110035,122.674866 40.133907,116.416786 
	C40.169487,107.087326 39.987045,97.754257 40.185497,88.428848 
	C40.511505,73.109024 49.871342,64.031967 65.093918,63.982117 
	C68.759056,63.970116 72.429886,64.097839 76.087997,63.934830 
	C80.805038,63.724644 84.075401,60.246552 83.863953,55.942020 
	C83.658562,51.760647 80.562416,48.993446 75.771477,48.981400 
	C63.547596,48.950665 51.002380,47.346062 40.580944,56.650307 
	C39.247391,51.792351 37.326759,48.708340 31.703939,48.964821 
z"/>
<path fill="#E93766" opacity="1.000000" stroke="none" 
	d="
M232.973145,31.004475 
	C232.976074,26.510448 232.894806,22.512997 233.002899,18.520668 
	C233.143585,13.325112 236.369263,9.913946 240.822372,10.054813 
	C245.182083,10.192726 248.013000,13.388879 248.016922,18.449499 
	C248.041458,50.244511 248.049881,82.039597 247.999115,113.834557 
	C247.989319,119.966560 243.876877,125.569305 238.102036,125.708939 
	C225.988998,126.001823 213.659470,126.702255 201.777130,124.888298 
	C185.670731,122.429497 175.391190,111.744820 171.821548,95.872856 
	C168.371735,80.533821 172.682251,67.021828 185.157455,57.043816 
	C197.892761,46.857758 211.987381,45.553829 226.799835,52.469395 
	C228.393036,53.213219 230.027176,53.869347 232.973145,55.140297 
	C232.973145,46.566288 232.973145,39.034809 232.973145,31.004475 
M189.323761,96.793182 
	C192.945984,105.125137 199.146088,110.137924 208.307663,110.713440 
	C215.099014,111.140068 221.941727,111.232651 228.728668,110.865608 
	C230.206757,110.785667 232.716522,108.140266 232.749802,106.632248 
	C232.917969,99.012779 232.569550,91.370224 232.122116,83.752220 
	C231.694962,76.479416 227.467972,71.461075 221.509964,67.856110 
	C213.574860,63.054897 203.587662,63.816856 196.317566,69.525124 
	C188.373520,75.762558 185.855667,84.960449 189.323761,96.793182 
z"/>
<path fill="#E93866" opacity="1.000000" stroke="none" 
	d="
M124.038239,97.901634 
	C125.867989,102.629791 127.595001,106.980812 129.322006,111.331833 
	C129.851807,111.304451 130.381592,111.277069 130.911377,111.249687 
	C131.834717,109.443459 132.952621,107.709152 133.650986,105.819771 
	C139.876816,88.976257 145.996277,72.093422 152.221390,55.249645 
	C154.157272,50.011559 157.739578,47.904282 162.669250,49.083759 
	C166.844727,50.082794 168.659409,53.165478 168.582611,57.222874 
	C168.549210,58.987816 167.793900,60.781502 167.162231,62.486469 
	C154.107178,97.723358 141.003662,132.942307 127.967537,168.186172 
	C126.289665,172.722366 123.701714,175.625183 118.422737,175.094559 
	C114.548920,174.705185 112.280830,172.454880 111.690163,168.848694 
	C111.388687,167.008102 111.829781,164.886536 112.467430,163.079788 
	C114.901764,156.182251 117.762512,149.428757 120.003174,142.473007 
	C120.741882,140.179794 120.775085,137.189697 119.963684,134.939041 
	C111.335793,111.007263 102.472473,87.160355 93.674965,63.289726 
	C93.329887,62.353401 92.960045,61.424236 92.662102,60.472832 
	C91.047386,55.316631 92.880455,50.683693 97.091515,49.229538 
	C101.903763,47.567783 106.185760,49.586491 108.207329,54.945484 
	C113.547470,69.101738 118.705170,83.326813 124.038239,97.901634 
z"/>
<path fill="#E93866" opacity="1.000000" stroke="none" 
	d="
M256.491699,91.424263 
	C255.258987,70.511978 267.012451,53.643372 286.402130,49.669357 
	C313.694275,44.075699 333.796753,64.432907 333.189636,85.683861 
	C333.005157,92.142380 330.736176,94.797043 324.230408,94.849731 
	C309.410034,94.969757 294.588654,94.961586 279.767670,95.003914 
	C277.954285,95.009094 276.140930,95.004623 273.283813,95.004623 
	C274.278137,97.353523 274.738007,99.192223 275.733551,100.670044 
	C282.378876,110.534470 295.324524,113.581184 307.373566,108.208237 
	C308.736755,107.600365 310.033142,106.842339 311.358612,106.150307 
	C315.690765,103.888535 319.382904,104.659760 321.840698,108.341873 
	C324.127380,111.767654 323.338409,115.879173 319.347198,118.804901 
	C308.295593,126.906265 295.880859,128.194168 283.245361,124.149902 
	C267.742615,119.187912 258.846405,108.087273 256.491699,91.424263 
M316.391266,77.793724 
	C312.195831,68.179100 303.778809,63.268673 292.763153,64.009315 
	C283.938995,64.602600 275.731262,70.964439 273.578827,79.105408 
	C274.484619,79.350319 275.391693,79.809036 276.298523,79.808548 
	C288.611450,79.801865 300.924622,79.758942 313.236694,79.627327 
	C314.276001,79.616226 315.307831,78.905716 316.391266,77.793724 
z"/>
<path fill="#E93765" opacity="1.000000" stroke="none" 
	d="
M32.112427,48.962334 
	C37.326759,48.708340 39.247391,51.792351 40.580944,56.650307 
	C51.002380,47.346062 63.547596,48.950665 75.771477,48.981400 
	C80.562416,48.993446 83.658562,51.760647 83.863953,55.942020 
	C84.075401,60.246552 80.805038,63.724644 76.087997,63.934830 
	C72.429886,64.097839 68.759056,63.970116 65.093918,63.982117 
	C49.871342,64.031967 40.511505,73.109024 40.185497,88.428848 
	C39.987045,97.754257 40.169487,107.087326 40.133907,116.416786 
	C40.110035,122.674866 37.371292,126.078743 32.537888,125.997505 
	C27.708931,125.916328 25.012558,122.490829 25.005508,116.259682 
	C24.983456,96.767540 25.007427,77.275345 24.990412,57.783192 
	C24.986328,53.103714 26.448704,49.607735 32.112427,48.962334 
z"/>
<path fill="#FFFDFD" opacity="1.000000" stroke="none" 
	d="
M189.193054,96.411133 
	C185.855667,84.960449 188.373520,75.762558 196.317566,69.525124 
	C203.587662,63.816856 213.574860,63.054897 221.509964,67.856110 
	C227.467972,71.461075 231.694962,76.479416 232.122116,83.752220 
	C232.569550,91.370224 232.917969,99.012779 232.749802,106.632248 
	C232.716522,108.140266 230.206757,110.785667 228.728668,110.865608 
	C221.941727,111.232651 215.099014,111.140068 208.307663,110.713440 
	C199.146088,110.137924 192.945984,105.125137 189.193054,96.411133 
M219.577057,82.131996 
	C215.696350,76.186562 210.170166,74.685966 204.796494,78.118408 
	C200.284698,81.000305 199.019882,87.445541 202.043839,92.145287 
	C204.681686,96.244995 209.878891,97.868614 214.218292,95.948586 
	C219.531372,93.597748 221.506454,89.018967 219.577057,82.131996 
z"/>
<path fill="#FEF7F9" opacity="1.000000" stroke="none" 
	d="
M316.367188,78.156937 
	C315.307831,78.905716 314.276001,79.616226 313.236694,79.627327 
	C300.924622,79.758942 288.611450,79.801865 276.298523,79.808548 
	C275.391693,79.809036 274.484619,79.350319 273.578827,79.105408 
	C275.731262,70.964439 283.938995,64.602600 292.763153,64.009315 
	C303.778809,63.268673 312.195831,68.179100 316.367188,78.156937 
z"/>
<path fill="#F49DB3" opacity="1.000000" stroke="none" 
	d="
M219.725647,82.484314 
	C221.506454,89.018967 219.531372,93.597748 214.218292,95.948586 
	C209.878891,97.868614 204.681686,96.244995 202.043839,92.145287 
	C199.019882,87.445541 200.284698,81.000305 204.796494,78.118408 
	C210.170166,74.685966 215.696350,76.186562 219.725647,82.484314 
z"/>
</svg>